<svg width="1440" height="816" viewBox="0 0 1440 816" fill="none" xmlns="http://www.w3.org/2000/svg">
<g opacity="0.45">
<mask id="mask0_7585_6017" style="mask-type:alpha" maskUnits="userSpaceOnUse" x="0" y="0" width="1440" height="816">
<rect width="1440" height="816" transform="matrix(-1 0 0 1 1440 0)" fill="url(#paint0_linear_7585_6017)"/>
</mask>
<g mask="url(#mask0_7585_6017)">
<rect x="1440" y="879" width="1440" height="238" transform="rotate(180 1440 879)" fill="url(#paint1_linear_7585_6017)"/>
<rect y="92" width="1440" height="549" fill="#101D1F"/>
<path d="M298.737 517.274L-10.4683 296.549L-11.2266 298.165L297.979 518.891L298.737 517.274Z" fill="#4BB0C0"/>
<path d="M-72.3142 252.402L-196 164.109V166.272L-73.0785 254.019L-72.3142 252.402Z" fill="#4BB0C0"/>
<path d="M51.3716 165.733L360.583 -55H357.556L50.6133 164.109L51.3716 165.733Z" fill="#4BB0C0"/>
<path d="M484.269 738L360.583 649.714L359.825 651.331L481.236 738H484.269Z" fill="#4BB0C0"/>
<path d="M979 738L236.897 208.255L236.139 209.88L975.973 738H979Z" fill="#4BB0C0"/>
<path d="M-10.4743 563.038L113.211 474.752L112.453 473.128L-11.2266 561.421L-10.4743 563.038Z" fill="#4BB0C0"/>
<path d="M-196 607.184L-72.3202 518.891L-73.0725 517.274L-196 605.021V607.184Z" fill="#4BB0C0"/>
<path d="M299.119 738V606.372H297.603V738H299.119Z" fill="#4BB0C0"/>
<path d="M-71.938 738V518.086H-73.4546V738H-71.938Z" fill="#4BB0C0"/>
<path d="M175.434 738V341.5H173.917V738H175.434Z" fill="#4BB0C0"/>
<path d="M113.594 209.068V-55H112.071V209.068H113.594Z" fill="#4BB0C0"/>
<path d="M360.201 649.441L299.119 605.841V518.625L360.201 475.025L421.283 518.625V605.841L360.201 649.441ZM297.979 607.184L360.201 651.597C381.063 636.699 401.937 621.816 422.799 606.911V517.547C401.925 502.679 381.045 487.797 360.201 472.862C339.333 487.76 318.477 502.694 297.597 517.555V606.919L297.979 607.192V607.184Z" fill="#4BB0C0"/>
<path d="M421.671 517.274L359.449 561.687V650.519H360.959V562.765L422.423 518.891L421.671 517.274Z" fill="#4BB0C0"/>
<path d="M174.299 518.891L236.515 563.303C257.377 548.398 278.251 533.508 299.119 518.618V429.247L175.057 340.688L174.299 342.312L297.603 430.332V517.547L236.521 561.148L175.051 517.274L174.299 518.891Z" fill="#4BB0C0"/>
<path d="M360.583 561.421L298.737 517.274L297.985 518.891L359.831 563.038L360.583 561.421Z" fill="#4BB0C0"/>
<path d="M298.737 605.568L236.897 561.421L236.139 563.038L297.979 607.184L298.737 605.568Z" fill="#4BB0C0"/>
<path d="M174.675 340.422L113.594 296.822V209.606L174.675 166.006L235.757 209.614V296.829L174.675 340.437V340.422ZM112.453 298.165L174.675 342.578C195.537 327.68 216.411 312.797 237.273 297.892V208.521C216.411 193.616 195.543 178.733 174.675 163.836C153.789 178.689 132.939 193.631 112.071 208.529V297.892L112.453 298.165Z" fill="#4BB0C0"/>
<path d="M236.139 208.255L173.923 252.675L173.917 341.5H175.434V253.753L236.897 209.88L236.139 208.255Z" fill="#4BB0C0"/>
<path d="M359.449 650.519L359.443 738H360.959V650.519H359.449Z" fill="#4BB0C0"/>
<path d="M607.949 738L422.423 605.568L421.665 607.184L604.921 738H607.949Z" fill="#4BB0C0"/>
<path d="M731.634 738L422.423 517.274L421.665 518.891L728.607 738H731.634Z" fill="#4BB0C0"/>
<path d="M855.308 738L236.897 296.549L236.133 298.165L852.287 738H855.308Z" fill="#4BB0C0"/>
<path d="M-8.19934 738L236.897 563.038L236.139 561.421L-11.2266 738H-8.19934Z" fill="#4BB0C0"/>
<path d="M-131.885 738L298.737 430.605L297.979 428.981L-134.918 738H-131.885Z" fill="#4BB0C0"/>
<path d="M113.211 208.255L-196 -12.4775V-10.3145L112.453 209.872L113.211 208.255Z" fill="#4BB0C0"/>
<path d="M-10.0922 385.647V-55H-11.6087V385.647H-10.0922Z" fill="#4BB0C0"/>
<path d="M175.051 517.274L-10.4743 384.842L-11.2325 386.459L174.293 518.891L175.051 517.274Z" fill="#4BB0C0"/>
<path d="M-72.6963 517.009L-133.778 473.401V386.185L-72.6963 342.585L-11.6147 386.185V473.401L-72.6963 517.001V517.009ZM-134.918 474.752L-72.6963 519.164C-51.8163 504.289 -30.9602 489.369 -10.0922 474.479V385.108C-30.9781 370.254 -51.8402 355.335 -72.6963 340.422C-93.5524 355.335 -114.42 370.24 -135.294 385.108V474.479L-134.912 474.752H-134.918Z" fill="#4BB0C0"/>
<path d="M-11.2266 384.842L-73.4486 429.254V518.086H-71.938V430.332L-10.4743 386.459L-11.2266 384.842Z" fill="#4BB0C0"/>
<path d="M-134.918 386.459L-73.0785 430.605L-72.3142 428.981L-134.154 384.842L-134.918 386.459Z" fill="#4BB0C0"/>
<path d="M236.891 738L-72.3142 517.274L-73.0785 518.891L233.864 738H236.891Z" fill="#4BB0C0"/>
<path d="M-71.938 341.5V-55H-73.4546V341.5H-71.938Z" fill="#4BB0C0"/>
<path d="M-196 254.558L-135.3 297.892V384.022L-196 340.688V342.851L-133.778 387.271V296.814L-196 252.402V254.558Z" fill="#4BB0C0"/>
<path d="M-133.778 297.353V32.4811H-135.3V297.353H-133.778Z" fill="#4BB0C0"/>
<path d="M-73.0725 75.8157L-134.918 119.962L-134.154 121.586L-72.3142 77.4398L-73.0725 75.8157Z" fill="#4BB0C0"/>
<path d="M-10.4743 121.586L236.897 -55H233.876L-11.2325 119.962L-10.4743 121.586Z" fill="#4BB0C0"/>
<path d="M175.051 165.733L484.269 -55H481.242L174.293 164.109L175.051 165.733Z" fill="#4BB0C0"/>
<path d="M236.897 209.88L607.955 -55H604.921L236.139 208.255L236.897 209.88Z" fill="#4BB0C0"/>
<path d="M113.211 296.549L-10.4743 208.255L-11.2266 209.872L112.453 298.165L113.211 296.549Z" fill="#4BB0C0"/>
<path d="M-134.918 473.128L-196 516.735V518.891L-134.154 474.752L-134.918 473.128Z" fill="#4BB0C0"/>
<path d="M1041.26 165.726L1350.47 386.451L1351.23 384.835L1042.02 164.109L1041.26 165.726Z" fill="#4BB0C0"/>
<path d="M1412.31 430.598L1536 518.891L1536 516.728L1413.08 428.981L1412.31 430.598Z" fill="#4BB0C0"/>
<path d="M1288.63 517.267L979.417 738L982.444 738L1289.39 518.891L1288.63 517.267Z" fill="#4BB0C0"/>
<path d="M855.731 -55.0001L979.417 33.2858L980.175 31.669L858.764 -55.0001L855.731 -55.0001Z" fill="#4BB0C0"/>
<path d="M361 -55.0002L1103.1 474.745L1103.86 473.12L364.027 -55.0002L361 -55.0002Z" fill="#4BB0C0"/>
<path d="M1350.47 119.962L1226.79 208.248L1227.55 209.872L1351.23 121.579L1350.47 119.962Z" fill="#4BB0C0"/>
<path d="M1536 75.8159L1412.32 164.109L1413.07 165.726L1536 77.9789L1536 75.8159Z" fill="#4BB0C0"/>
<path d="M1040.88 -55.0001L1040.88 76.6277L1042.4 76.6277L1042.4 -55.0001L1040.88 -55.0001Z" fill="#4BB0C0"/>
<path d="M1411.94 -55L1411.94 164.914L1413.45 164.914L1413.45 -55L1411.94 -55Z" fill="#4BB0C0"/>
<path d="M1164.57 -55L1164.57 341.5L1166.08 341.5L1166.08 -55L1164.57 -55Z" fill="#4BB0C0"/>
<path d="M1226.41 473.933L1226.41 738L1227.93 738L1227.93 473.933L1226.41 473.933Z" fill="#4BB0C0"/>
<path d="M979.799 33.5589L1040.88 77.1593L1040.88 164.375L979.799 207.975L918.717 164.375L918.717 77.1593L979.799 33.5589ZM1042.02 75.8157L979.799 31.4033C958.937 46.3009 938.063 61.1838 917.201 76.0888L917.201 165.452C938.075 180.321 958.955 195.203 979.799 210.138C1000.67 195.24 1021.52 180.306 1042.4 165.445L1042.4 76.0815L1042.02 75.8083L1042.02 75.8157Z" fill="#4BB0C0"/>
<path d="M918.329 165.726L980.551 121.313L980.551 32.4811L979.041 32.4811L979.041 120.235L917.577 164.109L918.329 165.726Z" fill="#4BB0C0"/>
<path d="M1165.7 164.109L1103.48 119.697C1082.62 134.602 1061.75 149.492 1040.88 164.382L1040.88 253.753L1164.94 342.312L1165.7 340.688L1042.4 252.668L1042.4 165.453L1103.48 121.852L1164.95 165.726L1165.7 164.109Z" fill="#4BB0C0"/>
<path d="M979.417 121.579L1041.26 165.726L1042.02 164.109L980.169 119.962L979.417 121.579Z" fill="#4BB0C0"/>
<path d="M1041.26 77.4324L1103.1 121.579L1103.86 119.962L1042.02 75.8157L1041.26 77.4324Z" fill="#4BB0C0"/>
<path d="M1165.32 342.578L1226.41 386.178L1226.41 473.394L1165.32 516.994L1104.24 473.386L1104.24 386.171L1165.32 342.563L1165.32 342.578ZM1227.55 384.835L1165.32 340.422C1144.46 355.32 1123.59 370.203 1102.73 385.108L1102.73 474.479C1123.59 489.384 1144.46 504.267 1165.32 519.164C1186.21 504.311 1207.06 489.369 1227.93 474.472L1227.93 385.108L1227.55 384.835Z" fill="#4BB0C0"/>
<path d="M1103.86 474.745L1166.08 430.325L1166.08 341.5L1164.57 341.5L1164.57 429.247L1103.1 473.12L1103.86 474.745Z" fill="#4BB0C0"/>
<path d="M980.551 32.4811L980.557 -55.0001L979.041 -55.0001L979.041 32.4811L980.551 32.4811Z" fill="#4BB0C0"/>
<path d="M732.051 -55.0001L917.577 77.4324L918.335 75.8157L735.079 -55.0001L732.051 -55.0001Z" fill="#4BB0C0"/>
<path d="M608.366 -55.0002L917.577 165.726L918.335 164.109L611.393 -55.0002L608.366 -55.0002Z" fill="#4BB0C0"/>
<path d="M484.692 -55.0002L1103.1 386.451L1103.87 384.835L487.713 -55.0002L484.692 -55.0002Z" fill="#4BB0C0"/>
<path d="M1348.2 -55L1103.1 119.962L1103.86 121.579L1351.23 -55L1348.2 -55Z" fill="#4BB0C0"/>
<path d="M1471.89 -55L1041.26 252.395L1042.02 254.019L1474.92 -55L1471.89 -55Z" fill="#4BB0C0"/>
<path d="M1226.79 474.745L1536 695.478L1536 693.315L1227.55 473.128L1226.79 474.745Z" fill="#4BB0C0"/>
<path d="M1350.09 297.354L1350.09 738L1351.61 738L1351.61 297.354L1350.09 297.354Z" fill="#4BB0C0"/>
<path d="M1164.95 165.726L1350.47 298.158L1351.23 296.541L1165.71 164.109L1164.95 165.726Z" fill="#4BB0C0"/>
<path d="M1412.7 165.991L1473.78 209.599L1473.78 296.815L1412.7 340.415L1351.61 296.815L1351.61 209.599L1412.7 165.999L1412.7 165.991ZM1474.92 208.248L1412.7 163.836C1391.82 178.711 1370.96 193.631 1350.09 208.521L1350.09 297.892C1370.98 312.746 1391.84 327.666 1412.7 342.578C1433.55 327.666 1454.42 312.761 1475.29 297.892L1475.29 208.521L1474.91 208.248L1474.92 208.248Z" fill="#4BB0C0"/>
<path d="M1351.23 298.158L1413.45 253.746L1413.45 164.914L1411.94 164.914L1411.94 252.668L1350.47 296.541L1351.23 298.158Z" fill="#4BB0C0"/>
<path d="M1474.92 296.542L1413.08 252.395L1412.31 254.019L1474.15 298.158L1474.92 296.542Z" fill="#4BB0C0"/>
<path d="M1103.11 -55.0001L1412.31 165.726L1413.08 164.109L1106.14 -55.0001L1103.11 -55.0001Z" fill="#4BB0C0"/>
<path d="M1411.94 341.5L1411.94 738L1413.45 738L1413.45 341.5L1411.94 341.5Z" fill="#4BB0C0"/>
<path d="M1536 428.442L1475.3 385.108L1475.3 298.978L1536 342.312L1536 340.149L1473.78 295.729L1473.78 386.186L1536 430.598L1536 428.442Z" fill="#4BB0C0"/>
<path d="M1473.78 385.647L1473.78 650.519L1475.3 650.519L1475.3 385.647L1473.78 385.647Z" fill="#4BB0C0"/>
<path d="M1413.07 607.185L1474.92 563.038L1474.15 561.414L1412.31 605.56L1413.07 607.185Z" fill="#4BB0C0"/>
<path d="M1350.47 561.414L1103.1 738L1106.12 738L1351.23 563.038L1350.47 561.414Z" fill="#4BB0C0"/>
<path d="M1164.95 517.267L855.731 738L858.758 738L1165.71 518.891L1164.95 517.267Z" fill="#4BB0C0"/>
<path d="M1103.1 473.12L732.045 738L735.079 738L1103.86 474.745L1103.1 473.12Z" fill="#4BB0C0"/>
<path d="M1226.79 386.451L1350.47 474.745L1351.23 473.128L1227.55 384.835L1226.79 386.451Z" fill="#4BB0C0"/>
<path d="M1474.92 209.872L1536 166.265L1536 164.109L1474.15 208.248L1474.92 209.872Z" fill="#4BB0C0"/>
</g>
</g>
<defs>
<linearGradient id="paint0_linear_7585_6017" x1="720" y1="72.8159" x2="720" y2="742.028" gradientUnits="userSpaceOnUse">
<stop stop-color="#1D253A" stop-opacity="0"/>
<stop offset="0.38" stop-color="#1D253A"/>
<stop offset="0.605" stop-color="#1D253A"/>
<stop offset="1" stop-color="#1D253A" stop-opacity="0"/>
</linearGradient>
<linearGradient id="paint1_linear_7585_6017" x1="2160" y1="879" x2="2160" y2="1117" gradientUnits="userSpaceOnUse">
<stop stop-color="#394A73"/>
<stop offset="0.68" stop-color="#18222F"/>
</linearGradient>
</defs>
</svg>
