<svg width="1437" height="945" viewBox="0 0 1437 945" fill="none" xmlns="http://www.w3.org/2000/svg">
<mask id="mask0_7501_37053" style="mask-type:alpha" maskUnits="userSpaceOnUse" x="-3" y="0" width="1440" height="945">
<rect width="1440" height="945" transform="matrix(-1 0 0 1 1437 0)" fill="url(#paint0_linear_7501_37053)"/>
</mask>
<g mask="url(#mask0_7501_37053)">
<path d="M703.685 868.896L247.639 543.792L246.521 546.173L702.566 871.277L703.685 868.896Z" fill="#101D1F"/>
<path d="M156.423 478.769L-26 348.723V351.909L155.296 481.15L156.423 478.769Z" fill="#101D1F"/>
<path d="M338.847 351.115L794.901 26H790.436L337.728 348.723L338.847 351.115Z" fill="#101D1F"/>
<path d="M977.324 1194L794.901 1063.96L793.782 1066.35L972.851 1194H977.324Z" fill="#101D1F"/>
<path d="M1707 1194L612.477 413.746L611.359 416.138L1702.54 1194H1707Z" fill="#101D1F"/>
<path d="M247.631 936.3L430.054 806.265L428.936 803.873L246.521 933.919L247.631 936.3Z" fill="#101D1F"/>
<path d="M-26 1001.32L156.415 871.277L155.305 868.896L-26 998.137V1001.32Z" fill="#101D1F"/>
<path d="M704.248 1194V1000.13H702.011V1194H704.248Z" fill="#101D1F"/>
<path d="M156.978 1194V870.092H154.741V1194H156.978Z" fill="#101D1F"/>
<path d="M521.825 1194V610H519.588V1194H521.825Z" fill="#101D1F"/>
<path d="M430.618 414.942V26H428.372V414.942H430.618Z" fill="#101D1F"/>
<path d="M794.337 1063.56L704.248 999.344V870.886L794.337 806.667L884.426 870.886V999.344L794.337 1063.56ZM702.566 1001.32L794.337 1066.74C825.107 1044.79 855.893 1022.87 886.663 1000.92V869.298C855.876 847.399 825.08 825.478 794.337 803.481C763.559 825.424 732.798 847.421 702.003 869.309V1000.93L702.566 1001.33V1001.32Z" fill="#101D1F"/>
<path d="M884.998 868.896L793.228 934.31V1065.15H795.456V935.898L886.108 871.277L884.998 868.896Z" fill="#101D1F"/>
<path d="M520.152 871.277L611.914 936.692C642.683 914.738 673.47 892.806 704.248 870.875V739.241L521.27 608.804L520.152 611.196L702.011 740.84V869.298L611.923 933.516L521.261 868.896L520.152 871.277Z" fill="#101D1F"/>
<path d="M794.901 933.919L703.685 868.896L702.575 871.277L793.791 936.3L794.901 933.919Z" fill="#101D1F"/>
<path d="M703.685 998.942L612.477 933.919L611.359 936.3L702.566 1001.32L703.685 998.942Z" fill="#101D1F"/>
<path d="M520.707 608.412L430.618 544.194V415.736L520.707 351.517L610.795 415.746V544.205L520.707 608.434V608.412ZM428.936 546.173L520.707 611.587C551.476 589.645 582.263 567.724 613.032 545.771V414.137C582.263 392.184 551.485 370.263 520.707 348.32C489.902 370.198 459.15 392.206 428.372 414.148V545.771L428.936 546.173Z" fill="#101D1F"/>
<path d="M611.359 413.746L519.597 479.171L519.588 610H521.825V480.759L612.477 416.138L611.359 413.746Z" fill="#101D1F"/>
<path d="M793.228 1065.15L793.219 1194H795.456V1065.15H793.228Z" fill="#101D1F"/>
<path d="M1159.74 1194L886.108 998.942L884.99 1001.32L1155.27 1194H1159.74Z" fill="#101D1F"/>
<path d="M1342.16 1194L886.108 868.896L884.99 871.277L1337.7 1194H1342.16Z" fill="#101D1F"/>
<path d="M1524.57 1194L612.477 543.792L611.35 546.173L1520.11 1194H1524.57Z" fill="#101D1F"/>
<path d="M250.986 1194L612.477 936.3L611.359 933.919L246.521 1194H250.986Z" fill="#101D1F"/>
<path d="M68.5625 1194L703.685 741.242L702.566 738.85L64.0889 1194H68.5625Z" fill="#101D1F"/>
<path d="M430.054 413.746L-26 88.6308V91.8167L428.936 416.127L430.054 413.746Z" fill="#101D1F"/>
<path d="M248.194 675.023V26H245.958V675.023H248.194Z" fill="#101D1F"/>
<path d="M521.261 868.896L247.631 673.838L246.512 676.219L520.143 871.277L521.261 868.896Z" fill="#101D1F"/>
<path d="M155.86 868.504L65.7709 804.275V675.817L155.86 611.598L245.949 675.817V804.275L155.86 868.494V868.504ZM64.0889 806.265L155.86 871.679C186.656 849.77 217.416 827.794 248.194 805.863V674.229C217.39 652.352 186.62 630.377 155.86 608.412C125.099 630.377 94.321 652.33 63.5341 674.229V805.863L64.0977 806.265H64.0889Z" fill="#101D1F"/>
<path d="M246.521 673.838L154.75 739.252V870.092H156.978V740.84L247.631 676.219L246.521 673.838Z" fill="#101D1F"/>
<path d="M64.0889 676.219L155.296 741.242L156.423 738.85L65.2161 673.838L64.0889 676.219Z" fill="#101D1F"/>
<path d="M612.469 1194L156.423 868.896L155.296 871.277L608.004 1194H612.469Z" fill="#101D1F"/>
<path d="M156.978 610V26H154.741V610H156.978Z" fill="#101D1F"/>
<path d="M-26 481.944L63.5253 545.771V672.631L-26 608.804V611.99L65.7709 677.415V544.183L-26 478.769V481.944Z" fill="#101D1F"/>
<path d="M65.7709 544.977V154.85H63.5253V544.977H65.7709Z" fill="#101D1F"/>
<path d="M155.305 218.677L64.0889 283.7L65.2161 286.092L156.423 221.069L155.305 218.677Z" fill="#101D1F"/>
<path d="M247.631 286.092L612.477 26H608.021L246.512 283.7L247.631 286.092Z" fill="#101D1F"/>
<path d="M521.261 351.115L977.324 26H972.859L520.143 348.723L521.261 351.115Z" fill="#101D1F"/>
<path d="M612.477 416.138L1159.75 26H1155.27L611.359 413.746L612.477 416.138Z" fill="#101D1F"/>
<path d="M430.054 543.792L247.631 413.746L246.521 416.127L428.936 546.173L430.054 543.792Z" fill="#101D1F"/>
<path d="M64.0889 803.873L-26 868.102V871.277L65.2161 806.265L64.0889 803.873Z" fill="#101D1F"/>
</g>
<defs>
<linearGradient id="paint0_linear_7501_37053" x1="720" y1="84.3272" x2="720" y2="859.334" gradientUnits="userSpaceOnUse">
<stop stop-color="#1D253A" stop-opacity="0"/>
<stop offset="0.38" stop-color="#1D253A"/>
<stop offset="0.605" stop-color="#1D253A"/>
<stop offset="1" stop-color="#1D253A" stop-opacity="0"/>
</linearGradient>
</defs>
</svg>
